<svg xmlns="http://www.w3.org/2000/svg" viewBox="0 0 1070.34 1033.63"><defs><style>.cls-1{fill:#f19d22;}</style></defs><title>Hacklogo</title><g id="Layer_2" data-name="Layer 2"><g id="Layer_2-2" data-name="Layer 2"><path class="cls-1" d="M567.44,740.38c-1.21-2.47-.7-5.13-.7-7.7q-.06-56.55,0-113.11c0-2.41-.07-4.82-.12-7.22-.08-4.23-2.08-5.54-5.77-3.44Q534.21,624,507.66,639.35c-4.45,2.57-4.76,7-4.75,11.6,0,28.08-.57,56.17.25,84.22.37,12.38-4.24,19.61-14.75,25.4-27.71,15.27-55,31.24-82.42,47.06-7.58,4.38-14.89,6.31-23.1,1.34-13-7.88-26.24-15.35-39.38-23a3.14,3.14,0,0,1-.43-5.16c5.63-5.32,8.88-12.75,15.42-17.24a8,8,0,0,1,4.32-1.79c6.62,1.41,12.17,5.21,17.56,8.85,8.69,5.88,16.24,6.16,25.35.22,13.23-8.63,27.32-16,41.08-23.79,1.85-1.05,4.64-1.72,4.63-4.23,0-2.85-3.06-3.37-5.09-4.49-12.63-7-24.78-14.76-37.58-21.42-1.93-1-3.87-2.19-4.61-4.51a3.59,3.59,0,0,1,.31-2.9c5.78-7,11.17-14.35,19-19.26a6.61,6.61,0,0,1,4.05-.76c8.4,2.91,15.51,8.22,23.22,12.42,4.75,2.59,9.29,5.52,14.19,7.86,3.65,1.74,5.79,1.18,5.8-3.3,0-19.62.18-39.25-.09-58.87,0-2.23-1-4.28-1.56-6.4a6.51,6.51,0,0,1,1.3-6.18c6.73-7.31,12.81-15.18,19.6-22.44,30.15-18.26,61.07-35.19,91.61-52.8,25.33-14.6,50.61-29.3,76-43.79a101.85,101.85,0,0,1,11.76-6c6.15-2.51,12.14-2.18,17.62,2,1.59,1.21,3.33,2.38,2.77,4.84-5.9,1-9.47,4.69-12.79,9.51-4,5.74-9.42,10.35-13.73,15.87-3.5,4.48-7.8,8.47-9.2,14.33a363.61,363.61,0,0,1-40.45,23.68C603.13,585.5,599,592,599.21,604.05c.77,39.31.31,78.64.24,118,0,3.28.94,6.91-2,9.63-3-1-2.5-3.73-2.62-5.95-.24-4.33-.11-8.68,0-13-.12-29.43,0-58.86-.11-88.56-9.39,7.35-15.7,16.93-23.36,25.27-2.38,2.59-1.88,6-1.88,9.19,0,24.25,0,48.49-.06,72.73C569.37,734.41,570.17,737.81,567.44,740.38Z"/><path class="cls-1" d="M785.72,746.17c-.92,5.44-4.57,8.83-9,11.38q-44,25.38-88,50.63c-7.27,4.19-14.39,5.45-22.06.79-10.08-6.12-20.37-11.89-30.57-17.81a3.46,3.46,0,0,1,.54-4.4c5.25-6.23,11.18-11.89,15.6-18.82a4,4,0,0,1,2.6-1.35c2.07-.34,4.23-.45,5.59-2.44,1.19-1.58.79-3.84,2.29-5.28a15.53,15.53,0,0,0,7.81-7c3.1-5.37,7.79-9.5,11.79-14.17,1.73-2,3.81-3.78,6.64-3.24,3.46.67,2.73,3.89,3.3,6.27.19.77.46,1.52.62,2.3a23.46,23.46,0,0,1,0,8.56c-.95,3.76-1.47,7.53,0,11.29,1.64,3.33,4,3.41,6.93,1.69C716,755,732.48,746,748.69,736.48A15,15,0,0,0,756,726c.63-14,.09-28,.28-41.95.05-3-.27-6,.45-8.94A41.06,41.06,0,0,0,767,659.41a5.23,5.23,0,0,1,2.81-3c3.9-1.62,6.17-4.61,8.27-8.16,2.64-4.46,5.7-4.79,8.21-1.56q0,46.5,0,93C786.22,741.84,786.72,744.07,785.72,746.17Z"/><path class="cls-1" d="M283.53,502.77c-.07-6.62-.19-13.24-.19-19.85,0-74.87.15-149.73-.13-224.59,0-10.48,3.63-17.25,12.73-22.38,28.8-16.24,57.41-32.85,85.94-49.56,7.75-4.54,15.07-5,22.52-.06,3.43,2.3,7.68,3.37,10.33,6.83-7.84,5.68-13.54,13.4-19.61,20.74-3.69,4.47-8.72,7.61-11.77,12.74-1.9,3.2-3.22,6.31-3.2,10.08.11,18.4-.12,36.81.14,55.22.21,16.11.11,32.21.06,48.31q.21,41.43,0,82.86c.23,13.35.07,26.7.06,40.05,0,2.37.06,4.81-1.54,6.85-3.27.58-2.83-2.15-3.16-3.83-.54-2.76-.28-5.6-.28-8.41V240.48c0-12.56.06-12.43-10.69-6.53-13.72,7.53-27,15.79-40.76,23.28-5.48,3-7.51,7-7.47,13.11.17,22.67.07,45.34.07,68q0,181.17-.05,362.35c0,3.92,1,8.08-1.7,11.65-4.1-.77-3.1-4.25-3.14-6.69-.21-10.62-.29-21.24,0-31.86-.29-24.88-.17-49.76-.06-74.64-.09-34.1-.28-68.2.08-102.3-.3-23.66-.22-47.32-.05-71-.1-14.65-.25-29.3.08-43.94-.07-23.55,0-47.11,0-71.25-7.13,9.21-16.49,15.49-22.2,25.14-1.69,2.86-3.18,5.38-3.17,8.75.07,21.64-.09,43.28.11,64.93,0,15.38.22,30.75-.11,46.13.29,13.44.09,26.88.1,40.32a12.75,12.75,0,0,1-.95,5.88A1.61,1.61,0,0,1,283.53,502.77Z"/><path class="cls-1" d="M352.06,36.59a427.83,427.83,0,0,1,58.48-19.34C437.69,10.35,465.07,4.67,493,2a497.82,497.82,0,0,1,80.91-.72,462.54,462.54,0,0,1,58.2,7.87C649,12.5,666,16,682.4,21.91c-.9,3.15-3.8,1.74-6.58,2.64,4.55,1.74,7.53-2.39,11.14-1.38a50.55,50.55,0,0,1,12.16,3.69c-8.09,9.49-19.06,8.24-29.73,7.82-2.94-.12-6.06-2.4-8,2-.56,1.26-2.85,1.19-3.72.13-1.93-2.35-2.39-.35-3.26.78-6.66,1.23-12.51-2.09-18.67-3.45-18.19-4-36.64-6-55.12-7.91-4.06-.41-8.05-1.69-11.76-1.07a41.61,41.61,0,0,1,5.73.1c1.38.18,2.27.87.94,2.31-2.58,1.5-5.47,1.49-8.21,1.12-14.2-1.9-28.45-.73-42.67-1.08-2.79-.07-5.64.25-8.23-1.2.58-2.23.58-2.23,2.63-2.47,11.2-1.29,22.45-.25,33.67-.69-11.13.44-22.28-.49-33.42.56a24.35,24.35,0,0,0-6.9,1.85c-8.3,1.31-16.7.42-25.08,1.46a575.77,575.77,0,0,0-58.24,10.24,32,32,0,0,1-7,1.22c-2.08-2.42-4.79-.59-7.18-1-9.49-1.67-19.06-.6-28.6-.64-2.82,0-4.94.2-5.19,4-.16,2.58-2.83,3-5.14,3-2.08-.06-3.95-.57-4.69-2.9-1.69-5.29-2.65-5.9-8-3.8C359.26,38.75,355.62,39.67,352.06,36.59Z"/><path class="cls-1" d="M603.81,967.84c-6.08,7.17-12.09,14.39-16,23.09-1.1,2.47-3.07,3.29-5.73,3.53-52.73,4.83-104.71.56-156.23-11.64-32-7.58-63.18-17.55-93.22-31a33.5,33.5,0,0,1-3.58-2.14c-.31-2.46,1.75-2.43,3.12-2.59,5.71-.65,11.13-2.73,16.91-3.2a13,13,0,0,0,9.61-5.26c.92-1.26,1.78-2,3.32-2,4.73.3,8.74,2.79,13,4.43,11.2,4.33,22.94,6.92,34.21,11,1.87.67,3.9,1,5.41,2.42,52,14.55,105,18,158.67,15.54,8.26-3.92,17.54-2,26.07-4.49C601.09,965.05,603.5,964.85,603.81,967.84Z"/><path class="cls-1" d="M378.4,470.38l.24-47.15c1.36-9,6.24-15.76,13-21.53,3.34-2.83,5.84-6.57,8.71-9.91,1.72-2,3.67-4.41,6.47-3.42s2.1,4,2.12,6.36c.09,11,0,22,0,33,0,2.59-.26,5.21.5,7.75,1.53,6,5.09,3.69,8.22,1.82,13.38-8,27.15-15.36,40.43-23.55,4.69-2.89,10.42-4.4,13.32-9.76,1.13-10.14.18-20.29.49-30.41a55.48,55.48,0,0,1,.3-7.74c2.78-5.91,7.75-10.13,12.09-14.71a149.42,149.42,0,0,0,12.48-14.49c1.37-1.87,2.75-4.17,5.76-2.56q0,25.29.07,50.59c-10.14,11.77-19.88,23.86-30.18,35.51-6,6.78-13.14,12.6-17.6,21-2.61,4.89-8.25,8-12.2,12.21-2.29,2.46-3.62,4.64-2.47,7.92-3.23,4.35-8.26,6.22-12.68,8.8-6.75,3.93-13.6,7.68-20.39,11.53-4.92,2.79-10,5-15.94,4.47C382.79,485.3,376.44,477.51,378.4,470.38Z"/><path class="cls-1" d="M440,460.62c-4.25-1.46-2.73-4.24-.66-5.79,4.63-3.47,6.86-9.43,12.52-11.74a2.67,2.67,0,0,0,1.32-1.2c4.82-11,14.34-18.25,22-26.86,8.64-9.73,16.38-20.21,25.32-29.65.47-.49,1.49-.46,2.25-.67,2.49,4.58,5.62,2,8.29.48,12-6.85,23.93-13.85,35.86-20.83,6.52-3.82,13.88-6.34,19-12.28,2.58-3.94.59-8.31,1.12-12.44a50.64,50.64,0,0,0,0-6.52c1.82-8.92,8.45-14.7,14-21.12,3-3.46,6.33-6.58,8.68-10.62,2-3.39,4.69-5.11,7.92-1.05,1.05,10.2.6,20.41.29,30.61-3.83,7.16-10.1,12.35-15.61,18a143.44,143.44,0,0,0-14,16.3c-5.37,7.48-11.85,14-17.57,21.13-4.54,5.67-9.51,11.19-14.46,16.62-1.45,1.59-3.5,2.81-3.33,5.4-4.41,4.5-10.26,6.77-15.53,9.91-23.49,14-47.59,27-71.47,40.3C444.15,459.62,442.44,461.36,440,460.62Z"/><path class="cls-1" d="M515.82,25.78c20.09-.11,40.19-.49,60.24,1.19,9.91-1.88,19.52.84,29.17,2.09a444,444,0,0,1,83.43,19.39c5.74,2.34,11.82,3.78,17.54,6.2,5.29,1.87,10.22,4.64,15.64,6.19,9.88,3.92,19.44,8.52,29,13.21,3.6,2.35,8,3.49,10.81,7.06,24.68,13.84,48.43,29.08,70.59,46.7,6.59,5.24,12.82,10.93,19.38,16.2,3.88,3.11,4.55,6.66,2.68,11.35-3.69-1.43-5.9-4.41-8.51-6.7A460,460,0,0,0,700,61.69,464.76,464.76,0,0,0,565.15,33.93c-45.43-2.62-90.09,1.71-134.29,11.73a358.82,358.82,0,0,0-51.67,15.85c-5,2-7.9,1-10.4-3.23-.07-3,2.41-3.38,4.37-4.11a477.45,477.45,0,0,1,76.76-21.3c14-2.68,28-4.44,42.07-6.31C499.94,26.57,507.84,25.05,515.82,25.78Z"/><path class="cls-1" d="M541.15,1033.63c-51,0-95.79-5.7-139.86-17.15-2-.53-6,.37-4.9-4.19,1-4.06,3.57-3.95,6.93-3.08a519.22,519.22,0,0,0,144.12,16.59,529.06,529.06,0,0,0,142.61-23c57.48-17.59,110.11-44.61,158.6-79.93,2.59-1.89,5.19-3.78,7.62-5.86,2-1.68,3.68-1.78,6-.6,3.07,1.57,4.12,2.55.65,5.18-12.93,9.82-26.07,19.31-39.76,28a530.72,530.72,0,0,1-102,50.75,547.53,547.53,0,0,1-109.86,27.79A577,577,0,0,1,541.15,1033.63Z"/><path class="cls-1" d="M427.06,690.5a10.19,10.19,0,0,0-6.71,3.58c-4.88,6.33-12.53,10.34-15.38,18.35a3.38,3.38,0,0,1-3.43-.28c-6.53-4.2-12.37-2.23-18.43,1.37-15.77,9.4-31.81,18.34-47.59,27.72-1.66,1.33-1.24,3.38-1.76,5.1-1.67,4.72-5.59,7.75-8.57,11.5-3.2,4-6.32,8.14-6.92,13.52l-17-9.37c-1.06-1.71-.26-3,.89-4.28,9-10.16,16.7-21.43,27.08-30.38,3.16-2.73,5-6.71,7.62-10,5.14-6.42,10.94-12.2,16.39-18.3a16,16,0,0,0,3.8-7.39c2.59-3.81,7-5.14,10.64-7.28,4.46-2.59,8.07-5.64,9.68-10.67a57,57,0,0,1,9.3-13.24c3.56-3.83,7.28-7.49,9.64-12.24a6.9,6.9,0,0,1,1.88-2.34c2.46-1.94,4.7-5.21,8.24-3.88s2.31,5.12,2.49,8c.35,5.8-.54,11.64.63,17.41-.33,8.89,3.8,14.7,12,18C423.89,686.33,426.46,687.5,427.06,690.5Z"/><path class="cls-1" d="M567.75,331.67c0,5.1,0,10.21-.15,15.31,0,1.82.78,4.06-1.73,5.1,1.07-3.52.78-7.15.79-10.75,0-27.06.25-54.12-.07-81.18-.13-11.26,3.42-19.3,13.77-25,28.69-15.93,57-32.55,85.49-48.88a6.35,6.35,0,0,1,1.73-.42c.38,5.86-3.44,9.5-7.21,13-2.39,2.21-4.71,4.31-5.88,7.42a4.34,4.34,0,0,1-1.14,2.1c-9.22,6.56-14.23,17.15-23.2,24-4.43,3.39-6.85,8.41-8,13.93-1,3.46-4.31,5-6.27,7.67a20.13,20.13,0,0,0-8.73,8.07c-5.86,11-15.71,18.55-23.48,27.88-4.36,5.24-7.81,11.15-12.58,16.05-2.14,2.2-1.81,5.15-2,8C568.72,319.8,570.31,325.9,567.75,331.67Z"/><path class="cls-1" d="M0,486.41c0-42.3,7.85-94.24,23.42-145,1.76-5.74,3.86-11.37,5.54-17.13.9-3.08,2.64-3.66,5.42-2.91,3.38.92,2.28,3.13,1.58,5.22a538.31,538.31,0,0,0-21.57,86.17,550.89,550.89,0,0,0-6.18,107.9,520.9,520.9,0,0,0,22,130.65,499.79,499.79,0,0,0,34,84.62c1.18,2.32,2,4.91,3.52,6.94,2.92,3.88,1,6.84-2.11,8.35s-3.49-2.44-4.4-4.2A544.44,544.44,0,0,1,17.81,635.22C5.9,590-.08,544,0,486.41Z"/><path class="cls-1" d="M927.44,242c5.6-1.59,8.69.27,11.44,4.64a460.8,460.8,0,0,1,56.79,131.32c9.11,35.37,14.53,71.34,15.05,108.07.54,38.27-2.23,76.11-10.6,113.48a486.58,486.58,0,0,1-20,67.3c-.73,1.93-.44,5.83-4.93,3.8-3.83-1.73-2.78-3.92-1.7-6.77A470,470,0,0,0,994,402a454.77,454.77,0,0,0-57.42-145.07Z"/><path class="cls-1" d="M976.52,800c-4.06-3.09-4.31-6.17-1.34-10.62A512.78,512.78,0,0,0,1026.47,691a530.08,530.08,0,0,0,34.13-144.54,539.36,539.36,0,0,0-3.86-129c-.47-3.16-.93-6.35-1.65-9.46-.61-2.64-.89-4.66,2.64-5.34s4.55,1.11,5,4.13a559.34,559.34,0,0,1,7.5,80.78,542.24,542.24,0,0,1-16.11,141.17A533.73,533.73,0,0,1,980,796C979,797.49,978.28,799.18,976.52,800Z"/><path class="cls-1" d="M378.63,290.76c0-19-.16-38-.07-56.93,0-6.3,4.53-10.67,8.51-14.43a210.93,210.93,0,0,0,18.83-21.09c2.45-3,4.89-5.13,8.83-5.15,11.47,5.44,22.43,11.79,33.35,18.23,1,.6,2.23.92,2.55,2.27-5.25,6.05-10.52,12.1-16.11,17.83-1.82,1.86-1.3,5.84-5.18,5.77-4-.87-7.21-3.44-10.74-5.28-6.74-3.54-8-2.91-8.13,4.51-.1,5.4,0,10.81,0,16.21q0,51-.05,102.07c0,3.29.82,6.88-1.94,9.68-3.52-1.37-2.86-4.58-2.87-7.2-.08-15.25-.29-30.51.07-45.75.19-15.76.08-31.53-.4-47.55-7.12,8.45-17.22,14-22.1,24.33C382.39,289.92,381.33,292.13,378.63,290.76Z"/><path class="cls-1" d="M352.06,36.59c4.35,1.33,8.47.3,12.35-1.56,2.95-1.41,5.5-.46,8.06.62,1.33.56,1.88,1.94,2,3.45.12,1.32-4.33,1-1.23,3a6,6,0,0,0,5.81,0c2.43-1.25.12-2.64-.2-4-.56-2.35.95-2.8,2.74-2.74,11.09.38,22.25-1.62,33.28.76,1.76.38,3.09-.37,4.63-.6,2.21-.34,1.46,1.11,1.15,2.22-4,4.25-9.7,3.61-14.66,5a12.1,12.1,0,0,0-5.74,1.64,4.47,4.47,0,0,1-2.51,0c-1.65-.64-3-1.88-4.91-2.51.44,1.34,2.48,2.1,1.27,3.79-9.56,4.76-19.36,8.77-30.05,10.16A613.58,613.58,0,0,0,302.8,86,335.14,335.14,0,0,0,274,104.15c-.83.59-1.59,1.22-2.69,1-1.86-4.15,3.17-5.93,3.25-9.44-1.11-1.31-2.78-1.35-4.26-1.82-2-.63-2.67-2.38-1.46-3.65,3.7-3.87.28-6.35-1.38-9.23,11-8.72,23.42-15.23,35.72-21.81C319,50.73,335.11,42.73,352.06,36.59Z"/><path class="cls-1" d="M358,691.78c1,5.77-3.56,9.21-6.8,11.88-5.82,4.8-10.23,10.75-14.44,16.56-6.48,9-15.57,15.37-21.88,24.18-4.33,6.05-9.53,11.35-13.55,17.59-4.91-3-10.4-5-14.1-9.77-1.62-2.08-3-4.2-2.81-7-1-15.05-.17-30.12-.46-45.17.5-4.65,4.49-7,7.27-9.81,4.91-4.93,10.11-9.59,14.79-14.79,1.9-2.1,4.16-4,7.21-1.61.06,10.76.07,21.52.2,32.28,0,2.11-.7,4.43,1.12,6.25,7-.75,12.64-4.89,18.53-8.17s11.79-6.83,17.7-10.21C352.94,692.75,355.1,691,358,691.78Z"/><path class="cls-1" d="M603.81,967.84c-1.38-1.8-3.08-1.28-4.83-.7-8.34,2.76-17.09,2-25.65,2.9,1.07-.84,2.84-1.31,2.57-3-1-6.32,3.47-6,7.47-6.33,51.59-4.41,100.77-17.84,147.89-39.19a463.71,463.71,0,0,0,106.42-67,438,438,0,0,0,43.75-42c2.87-3.17,5.05-5.72,9-1.73.9.9,2.31.22,3.45-.17,1.26,1.64-.21,2.57-1,3.55-9,10.72-19,20.44-29.25,29.85-4.86,4.44-9.82,8.76-14.33,13.56-10.78,9.31-22.4,17.52-34,25.8-3.91,2.8-7.73,5.72-11.6,8.57-3.14-.21-5.76.95-8.38,2.66-55.53,36.23-116.24,59-181.59,69.64C610.23,964.82,606.62,965.23,603.81,967.84Z"/><path class="cls-1" d="M655.91,767.61c-.92.34-2.36.42-2.69,1.06-4.06,7.93-11.07,13.41-16.48,20.21a6.38,6.38,0,0,0-.63,2.28c-20.13-11.44-40.3-22.79-60.32-34.41-3.36-1.94-6.71-4.54-7.09-9.11-1.32-6.34.17-11.38,6.25-14.67a13,13,0,0,0,5.93-7.31c2.19-6,7.45-9.23,12.17-12.88a3.11,3.11,0,0,1,3.41-.36c.81,6.37-1.39,13,1.31,19.19l.62.5a5.57,5.57,0,0,0,4.16,3.22c16.68,9,33.13,18.46,49.49,28C653.71,764.35,655.65,765.26,655.91,767.61Z"/><path class="cls-1" d="M596.46,712.42c-6.19,4.24-12.84,7.87-15,16.13-.56,2.2-3,4.67-5.21,5.56-6.37,2.62-7.5,7.66-7.58,13.53-1.65-2.2-1.49-4.73-1.25-7.26.06-28.29.19-56.59.12-84.88,0-3.85,1.11-6.39,3.89-9.29,8.33-8.71,16-18.05,25-28.39Z"/><path class="cls-1" d="M785.72,746.17q-.08-50.62-.16-101.24c-2.12-2.55-1.81-5.64-1.81-8.61,0-21.6-.22-43.21.15-64.82q-.42-37.35,0-74.71c-.23-32.73-.29-65.46,0-98.19-.17-40,0-80-.74-120.33-5.42,4.32-9.43,9.7-13.86,14.67-.66.75-1,1.85-1.76,2.42-8.59,6.49-7.87,15.69-7.82,25,.2,35.67,0,71.35.12,107,0,31.53.26,63.05-.11,94.58.34,20.37.16,40.73.07,61.1,0,2.47.35,5.36-2.77,6.66-3-2.69-2.11-6.31-2.12-9.6-.08-28.06,0-56.12,0-84.19q0-99.82,0-199.65c0-3.89,1.66-9.07-2.05-11.28-4.08-2.43-9.26,1.23-12.75,3.28-9.11,5.36-6,3.38-11.61,7-4.45-1.14-4.21-3.9-2.41-6.19,5.17-6.55,9.64-13.64,16-19.27,5.51-4.88,9.85-11,14.48-16.69,3.89-4.79,9.17-8.23,12.34-13.73,1.52-2.63,4.57-2.94,7.5-1.76,6.58,2.78,9.76,7.93,10.26,14.88.15,2,.09,4,.09,6q0,239.1,0,478.21C786.71,739.89,787.35,743.17,785.72,746.17Z"/><path class="cls-1" d="M414.66,954.5c-9.74-1-18.63-5.12-28-7.63-8.56-2.3-16.72-6.09-25.06-9.23-3.25-.89-6.56-1.55-9.84-2.29a8.75,8.75,0,0,1-3.21-1.38c-10.22-5.45-21-9.78-31.15-15.34-2.9-1.59-6.45-2.38-7.89-5.92.58-1,1.39-1.31,1.14-1.43-8.75-2.42-16.27-9.93-25.36-14.71-2.57-1.35-4.75-3.84-8.15-3-1.82-.05-3.3-.64-3.9-2.56-2.85-6.13-8.88-9-13.93-12.5-15.78-10.77-29.76-23.62-43.92-36.29C203.2,831.3,192.4,819,181.26,807c-9.23-9.51-16.83-20.34-24.56-31-6.57-9.06-12.9-18.34-18.73-27.93-1.31-2.15-3.39-4.17-1.75-7.08,2.81-4.67,4.86-3.18,7.16.61a451.3,451.3,0,0,0,72.79,90.64,462.08,462.08,0,0,0,96.59,71.86c31.28,17.44,64,31.38,98.47,40.88C418.11,946.85,413,951.56,414.66,954.5Z"/><path class="cls-1" d="M761.62,81.11a39.73,39.73,0,0,1-11-5.91c-3.45-4.52-9.27-4.89-13.68-7.81-4-2.62-8.65-4-13.06-5.87-4.88-1.94-9.8-3.78-14.69-5.7a136.61,136.61,0,0,0-16.89-6.1c-9.81-3.33-19.7-6.35-29.78-8.8-2.59-.63-6.16-.48-6.94-4.34-.39-.44-1.07-.86-1.12-1.34-.17-2,1.3-.91,1.75-.64,2.67,1.64,5.53,4.46,4.73-2.11-.17-1.36,1.57-1.79,3.24-1.13C670,33.68,676,36.11,682.1,32a1.61,1.61,0,0,1,1.16-.17c5.36,1.42,9.9.72,13-4.51.31-.53,1.87-.31,2.85-.44a448.76,448.76,0,0,1,78.15,33.9q-6.33,7.08-12.64,14.16C763.05,76.7,761.09,78.31,761.62,81.11Z"/><path class="cls-1" d="M776.33,237.63c-3.93.09-6.23,2.1-8.57,5.34-3.77,5.21-8.79,9.49-12.9,14.48-9.27,11.26-20.07,21.2-28.55,33.14-.89,1.26,2.06,3.29,2.1,4.68-4,2.14-5.51,3-7.46,4.15-7.33,4.37-14.75,8.59-22.09,12.94-1.87,1.12-3.8,2.19-5,4.14a16.19,16.19,0,0,0-1,10.4,26.68,26.68,0,0,1-.26,12.37c-1.89,2.39-2.69.44-3.21-1-1.4-3.8-2.63-2.83-4.75-.37-4.93,5.69-10.21,11.08-15.49,16.45-1.75,1.77-3.68,3.82-6.73,2.67-1.61-9.28-2.63-17.46,5.33-25.81,14.73-15.46,28-32.33,42-48.5,7.17-8.26,15-16,21.39-24.95a12.11,12.11,0,0,1,3-2.91c1.86-.87,1.93-3.07,3.2-4.37a19.06,19.06,0,0,0,7.07-7c3.67-5.93,9.68-9.75,13.48-15.51C764.18,231,770.82,233.24,776.33,237.63Z"/><path class="cls-1" d="M234.13,138.76c2.69,4.31,1.49,7.41-2.29,10.7A462.89,462.89,0,0,0,89.77,379.08c-.75,2.91-1.64,5.78-2.44,8.67-.57,2.06-2,2.17-3.77,1.83s-3-1.22-2.75-3.21a59.47,59.47,0,0,1,1.31-6.48,474.06,474.06,0,0,1,48.19-118.07c1.64-7.87,6.85-13.89,10.9-20.45,3.14-5.09,6.46-10.12,9.93-15,19.39-27.48,41.63-52.45,65.93-75.66,3.93-3.75,8.39-6.84,12.19-10.73C230.56,138.64,232.15,137.74,234.13,138.76Z"/><path class="cls-1" d="M1004.22,240.32c-.25,2.54-2.39,2.83-3.82,3.71-2,1.23-2.86-.54-3.63-1.93q-9.67-17.31-20.61-33.86A532.3,532.3,0,0,0,820.6,54.07c-1.43-.92-3.6-1.74-3.43-3.83a7.83,7.83,0,0,1,1.91-4.85c1.32-1.21,3,.4,4.28,1.24A560.33,560.33,0,0,1,892.16,99a545.26,545.26,0,0,1,82,92.46,520.49,520.49,0,0,1,28.93,46.37C1003.56,238.69,1003.9,239.63,1004.22,240.32Z"/><path class="cls-1" d="M622.08,246.27c-1.43-.43-5.08.65-1.94-2.86.53-.59,1.56-1,1.73-1.62,2.61-10.16,13.91-13.23,18.06-22.34,1.54-3.38,5.1-6.11,8.55-8.29,2-1.3,4-2.78,4.65-5.28,1-3.68,3.44-6.09,6.54-8.26,4.07-2.84,5.87-7.47,7.91-11.82,5.15-3.72,10.55-4.22,16.27-1.37a257.62,257.62,0,0,1,25.82,14.81,7.2,7.2,0,0,1-2.78,6.33c-6.47,4.93-10,12.24-15.19,18.16-3,.94-5-1.13-7-2.58-5-3.58-9.73-3.43-15-.23-14.08,8.48-28.27,16.8-43.08,24C625.14,245.57,623.84,246.67,622.08,246.27Z"/><path class="cls-1" d="M473.72,364.22c0,12,0,24.08-.1,36.12,0,2,1.07,4.54-1.64,5.88-2-3.1-1.36-6.6-1.36-10-.05-41.06-.13-82.12.07-123.18,0-6.77-1.56-12.19-7.39-15.94-2.39-2.48-2.83-5.27-.71-8a173.87,173.87,0,0,1,16.21-18.2,2.06,2.06,0,0,1,1.7-.29c4,2.93,8.92,3.95,13,6.76,5.63,3.86,9.47,8.34,9.29,15.58-.21,8.58-.14,17.16-.2,25.74-7.3,9.75-15.95,18.33-24.07,27.37a12.59,12.59,0,0,0-3.23,9.25c.07,13.4,0,26.8,0,40.2C475.34,358.52,475.48,361.54,473.72,364.22Z"/><path class="cls-1" d="M273.7,890.66l3.61,2.41c5.05.36,8.58,3,11,7.31-4.66,2-9.25,4.35-12.78-2-1.47-2.65-3.9-1.13-5.84-.25-2.33,1.05-2.44,2.83-1.29,5,1.44,2.68,3.25,5.83-.72,7.6-3.52,1.56-6-.48-7.57-3.84-1.43-3.1-3.76-5-7.43-5.07a6.14,6.14,0,0,1-6.4-5.91c-.39-4-1.32-5.22-4.79-2.41a6,6,0,0,1-4,.95,231.8,231.8,0,0,1-27.79-22.5c-1.84-5.62-3.74-11.19-8-15.53-.79-.42-.59,1-.32.23.06-.18.19,0,.55.17,3.32,1.61,2.83,5.44,4.55,8,1,1.53-.68,2.79-2.72,1.77a54.56,54.56,0,0,1-10.9-10.4c-2.15-2.92-5-5.18-7.65-7.55l-2-2a18,18,0,0,0-4-4.07l-4.45-4.67c-1.07-2.37,0-3.22,2.28-3.57.67-.1,1.7,1.85,2.07-.29.32-1.82,1.29-3,3.3-2.38s3.36,2.27,3,4c-1.13,6.2,4.48,7.92,7.26,11.46,1.81,2.31,4.29,1.58,6.5.19s4.18-2.12,6.4.17c1.54,1.59,3.35.6,4.93-.35,1.87-1.13,3.62-2.62,6.07-1.92a3.52,3.52,0,0,1,1.86,1.6c-.13,1.92.88,2.59,2.68,2.37,6.31,1.9,9.66,7.57,14.49,11.35C247,869.48,258.52,878,270.11,886.5,271.56,887.56,274.06,888,273.7,890.66Z"/><path class="cls-1" d="M119.46,718.41l13.31,22.81c8,11.24,16.29,22.26,22.48,34.66-.24.77.16-.17-.1.59-2.64,7.74-2.64,7.74,5.56,6.47a5.38,5.38,0,0,1,3.76,5.33c-.41,1.12-1,2.18-1.33,3.34-1,3.51-3.11,4.86-6.09,2.12-2.47-2.26-4.39-1.89-6.84-.06-3.71,2.76-7,1.63-10.07-1.49a107.48,107.48,0,0,1-12.87-15.71c-.78-1.15-1.22-2.61-3-2.58-9.47-13.42-18.22-27.28-25.31-42.14-.75-1.31-1.17-3.22,0-3.87,5.29-3,7.9-8.92,13.54-11.47C115.66,715,117.85,715.25,119.46,718.41Z"/><path class="cls-1" d="M124.29,773.89c.91-3.69,2.22-.88,2.88,0,2.41,3.17,4.73,6.42,6.85,9.79s6.29,5.07,8.44,8.88c1,1.83,4.89,2.82,7.31-.21,2.76-3.46,5.39-3.68,8.09.23,1.71,2.47,3.28,2.25,3.73-.9.24-1.68.28-3.25,2.48-3.4,4.31.79,4.93,5.25,7.6,7.69a103.25,103.25,0,0,1,10,11.12,339.56,339.56,0,0,0,32.77,34.12c1.38,1.26,3.43,2.37,2.64,4.89-1.91-.15-3.3.82-4.91,1.74-2.64,1.52-5.61,5.6-8.5-.14-1.05-2.1-2.5.22-3.26.83-4.34,3.48-7.54,2.5-10.32-2a7.76,7.76,0,0,0-3.07-2.75c-2.64-1.28-4.53-2.61-2.73-5.91a3.38,3.38,0,0,0,.11-2.35c-.45-1.54-1.29-3.53-3.06-3-2.46.78-.93,2.42-.08,3.76a6.13,6.13,0,0,1,.46,1.67c-2.41,1.24-4.66-6.85-6.9,0A414.19,414.19,0,0,1,124.29,773.89Z"/><path class="cls-1" d="M267.43,81c6.51,3.92,6.54,4.1,1.49,11.47,3.67-.53,6.1,1.62,9,2.69-2.56,3.26-5.43,6.08-6.67,10l-3.37,2.59c-2.4-1-3.83.1-4.88,2.18s-3.88,2.71-5,4.89L232.87,135.4c-3.53,4.86-7.25,9.49-13.28,11.45-7.57-.14-15.09-1.15-22.72.71-1.67.4-6.71.68-7.58-3.81,16.74-17.69,35.42-33.09,55.36-47,7.42-2.57,8.56-2.67,13.17-1-1.17-3.18.16-5.41,2.69-7.11,1-.69,2.2-1.21,3.32-.29,2.13,1.73-1.13,3.64.06,5.55,3.34-7.26,3.34-7.26,1.43-11.36Z"/><path class="cls-1" d="M237.49,894.42c1.46-1,3.27-1.65,4.29-2.95,1.49-1.92,3.23-2.55,5.19-1.69,2.57,1.13.18,3.13.47,4.65.58,3.09.7,6.41,5.85,5.56,4-.65,6.9,2.35,8.21,6,.74,2.07,1.21,3.79,3.71,3.88,1.19,0,2.59.24,3.21-1,1.08-2.19-.27-3.74-1.64-5.3-1.8-2.06-2.55-4.29.42-5.94s7.49-4.36,8.8-1.27c2.37,5.62,5.56,5,9.77,4a10.58,10.58,0,0,1,2.39,0,2.63,2.63,0,0,1,2.83.07c6.29,4,13.35,6.75,18.84,12,12.14,7.76,25.34,13.42,38.38,19.39a8.12,8.12,0,0,1,1.37,1.08c-1.75,2-4.17,2.31-6.56,2.58-2.85.33-5.16,1.8-7.7,3-5,2.27-11,1.48-15.93,4.64-1,.66-3.47-.34-4.3-1.61-2.2-3.37-6.73-3.53-8.83-7.36-1.92-3.53-4.89.52-7.45.4-14.22-6.58-26.84-15.82-40-24.17A173.25,173.25,0,0,1,237.49,894.42Z"/><path class="cls-1" d="M848.3,856.93c8.23-9.65,18.48-17.16,27.45-26,6.46-6.36,12.14-13.5,18.17-20.3l.79-.8c3-3.41,5.2-2.73,7,1.19a28.54,28.54,0,0,1,2.23,6.18c.4,1.95,1,3.82,3.36,4.25,1-2-.59-3.25-.86-4.74-.57-3.14.16-5.87,3.33-6.81s6,.55,7.06,3.9c.84,2.62,1.7,5.38.12,8.1-11.43,13.86-23.38,27.2-37.32,38.63-7.06,1-11.4,6.49-16.63,10.34-4.09,3-9,5.18-11.83,9.9-.88,1.49-2.81,1.4-4.36.53a4.26,4.26,0,0,1-2.47-4.41c.36-2.87,1.33-5.53,3.85-7.15a52.7,52.7,0,0,1,7.22-4.24c2-.89,5.58-.83,4.72-4.16-.73-2.86-3.78-3.88-6.66-4.29C851.76,856.8,850,858.39,848.3,856.93Z"/><path class="cls-1" d="M119.46,718.41c-4.3-3.7-8.7-.61-10.38,2a17.26,17.26,0,0,1-7.75,6.95A4,4,0,0,0,99,731.75c-9.16-15.34-15.88-31.83-22.66-48.28-2.06-5-3.61-10.18-5.52-15.23-.85-2.28-1-3.74,2.08-4.11a54.19,54.19,0,0,0,16.62-5c2.74-1.28,3.93-.49,4.87,2.16C101.3,680.94,110.56,699.59,119.46,718.41Z"/><path class="cls-1" d="M473.72,364.22c0-16,.72-32.09-.35-48-.56-8.4,4.46-13,9-17.19,5.28-4.9,9.28-10.74,14.27-15.76,1.81-1.83,3-4.33,6-4.53v55.42c-6,1.43-6.55,8-10.66,11.4C485.25,351.06,480.6,358.75,473.72,364.22Z"/><path class="cls-1" d="M848.3,856.93c4.3-2.71,8.1-1.6,11.73,1.4,1.38,1.14,3.07,1.95,2.6,4.24a4.1,4.1,0,0,1-3.77,3.37c-3.9.22-6.17,3.39-9.53,4.56-2.76,1-3,4-3.78,6.43-.61,2,.82,3,2.24,3.67,1.62.83,2.52-.23,3.3-1.57,3.52-6,10.2-8.21,15.25-12.38.83-.68,1.88-.93,2.56-2.08,2.44-4.13,6.31-4.9,10.72-4.05l-5,4.84c-3.11,1.11-4.19,4.61-7.08,6-6.86,8.16-16.26,13.42-23.82,20.71-9.37,9-18.61,12.06-29.95,3.59-2.75-2.06-6.69-2.5-10.08-3.69.63-4.48,5-5.3,7.75-7.45C823.62,875.12,836,866.09,848.3,856.93Z"/><path class="cls-1" d="M128,258.18c-5.65-2.51-11.1-5.49-17.11-7.09-2.56-.68-4.06-1.65-2.15-4.53,6.16-9.29,11.33-19.22,18.27-28,2.49-1.4,3.65-4.06,5.81-5.89,6.84-5.83,6.73-6,12.13.84.58-.83.43-1.95,1.08-2.75,1.78-2.19,3.71-4.76,6.72-4.34,2.44.34,3.71,2.86,4.37,5.27.32,1.18,1.35,2,1.54,3.21-1.21,4.23-4.53,7-7,10.45-6,9.66-12.54,19-18.55,28.68C132,255.92,131.19,258.64,128,258.18Z"/><path class="cls-1" d="M158,214.84c-.38-1.42-3.49.42-2.71-2,1.08-3.37-1.79-5.37-3.3-5.13a6.54,6.54,0,0,0-5.4,5.51c-.13.9,2,2-.14,2.71a2.76,2.76,0,0,1-3.55-1.54c-2.53-7.4-4.84-5.57-9.1-.87-1.48,1.63-3,5.62-6.83,5.05a346.77,346.77,0,0,1,31-41.07,34.7,34.7,0,0,1,3.41-1.1c2.85-.69,6.16.34,8.55-2s.62-5.28.64-7.95c0-3.25,2.08-3.49,4.51-2.83,4.86,1.33,9.5,10.09,7.35,14.64-1.19,2.51.82,4.17.53,6.28-5,8.63-12.3,15.53-18.3,23.41C162.8,210.45,162.05,214.32,158,214.84Z"/><path class="cls-1" d="M480.5,230.62q-7.86,8.92-15.74,17.83c-1.63,1.83-3.25,3.6-2,6.31-1.85,1.27-3.57.32-5-.58-7.89-4.8-15.8-9.55-23.88-14a4.07,4.07,0,0,1-2.48-3.19c-.2-1.16-1-2.89-.5-3.37,4.12-4.16,7.34-9.22,11.36-13.17,2.3-2.26,4-6.68,8.41-6.77,8.36,4.53,16.73,9,25.06,13.62C477.39,228.21,479.43,228.74,480.5,230.62Z"/><path class="cls-1" d="M916.94,821.89c-.4-2.33-1-4.66-1.15-7s-1.58-3.35-3.75-3.94a3.07,3.07,0,0,0-3.66,1.07c-1.44,1.82-1.15,3.65-.2,5.59.85,1.73,3.73,2.92,1.5,5.56a1.9,1.9,0,0,1-2.61.48c-2.31-1.12-5-1.89-4.57-5.37.3-2.55-1.47-4.49-2.14-6.74-1.1-3.69-3.22-2.93-5.65-1.72,8.48-10.63,17.53-20.82,25.31-32,1.29-1.86,2.42-2.75,4.77-.95,4.61,3.52,9.49,6.68,14.34,9.86,2.7,1.76,3.24,3.32,1,6.14C932.53,802.62,925.52,812.88,916.94,821.89Z"/><path class="cls-1" d="M182.14,184.72c-1.45-2.7-5.4-5.42.1-8.11.45-.22.83-1.82.59-2-3.1-2.76-3.39-7.79-7.66-9.53-1.38-.56-3.38-1.73-3.33,1.17.06,3.27,3.39,6.8-.78,9.66s-8.63,1.62-13.06,1.61l7.29-8.38a3.35,3.35,0,0,0,2.28-2.49c6.24-8.58,14-15.75,21.72-22.87,3.44,0,6.46,4.65,10.23.92,4.35,4,9.65-4.67,14.13,1.13,1.09,1.4,4-2.23,5.84.41.39,2.5-1.87,2.93-3.17,4.12a5,5,0,0,0-3.2,3.8q-11.81,13-24.49,25.14C186.62,181.19,185.77,184.7,182.14,184.72Z"/><path class="cls-1" d="M318.27,771.36c-2.61-7.51,3.84-11.16,7.17-15.91,2.24-3.19,5.21-5.94,7.28-9.35a4.17,4.17,0,0,1,1.55-.87C342.92,747,349.44,753,356.94,757c2.47,1.32,5.82,2.12,6.3,5.79-3.4.26-4.77,3.38-7.17,5.06-5.13,3.6-6.59,10.36-12,13.74-1.33.83-1.34,2.81-.53,4.41A284.23,284.23,0,0,1,318.27,771.36Z"/><path class="cls-1" d="M691.6,223.59a37.33,37.33,0,0,1,11.45-16.06c2.91-2.38,4.31-5.62,6.62-8.29,9.78,5.28,19.87,10,28.77,16.83-9.26,5.36-13.81,15.3-21.52,22.19a5.12,5.12,0,0,1-4.52-.77c-6-3.48-11.84-7.17-18-10.39C693.06,226.39,691.64,225.48,691.6,223.59Z"/><path class="cls-1" d="M716.93,238c6.38-8.07,10.33-18.53,21.51-21.89L758,227.92a20.11,20.11,0,0,1-7.45,10.24c-3.37,2.45-5.61,6.58-8,10.19-1.28,1.93-2.69,2.8-4.89,2.66-1-.3-1.92-.85-2.9-1.25-4.68-2.15-9-5-13.57-7.31C719.32,241.52,717.07,240.64,716.93,238Z"/><path class="cls-1" d="M397.77,43.8l2.42,0c1.37-1.25,3.27-1.45,4.81-2.37l15.66-3.61C450.77,30.55,481,24,512.21,24.53c-.34,3-2.71,1.7-4.12,1.71-5.54,0-10.9,1.35-16.36,1.9C458,31.85,424.86,38.38,392.65,49.28c-8.06,2.72-16.49,4.45-23.86,9-1.12-1.69-2.53-2.81-4.73-2.37L394.16,45C395.13,43.89,396.19,43.08,397.77,43.8Z"/><path class="cls-1" d="M182.14,184.72c8.6-8.79,16.42-18.34,25.75-26.42a49.67,49.67,0,0,0,4.37-4.88,9.13,9.13,0,0,1,3.6-3.61c.51-1.91,2.71-2.11,3.63-3.6,5.29-2.58,8.53-7.69,13.38-10.81l1.26,3.36c-5.9,2.77-10.2,7.6-14.78,11.92-24.33,23-46.87,47.53-65.85,75.19a5.67,5.67,0,0,1-1.41,1.08c-2.09,0-2.11-1-1.27-2.46l7.22-9.65Z"/><path class="cls-1" d="M298.81,934.43c2.59-.28,2-6.22,5.52-3.71,1.89,1.35,5.71,1.2,5.48,5.92-.12,2.36,2.83-1,5.13-1-.5,1.94-2.16,4.44,1.35,5.22,2.62.58,5.44,2.59,7.31-1,2-3.8,4.25-4.47,7.3-1.16a1.53,1.53,0,0,0,2.55-.14c3.93-6,10.69-4.05,16.13-5.79A2.49,2.49,0,0,0,352,934c1.63,3.39-1,4.78-3.15,6a26.45,26.45,0,0,1-13.71,3.64c-3.71,0-8-1.44-10.81,2.88-.38.58-1.9,0-2.84-.34-.88,0-1.7,0-2.11-1-1.44-1.43-3.44-1.75-5.18-2.6C308.55,940.86,303.63,937.75,298.81,934.43Z"/><path class="cls-1" d="M321.49,946.21c3.12,1,2.38-2.8,4.46-3.45,4.05-1.28,8.08-.73,12.12-.64,5.16.11,11.86-3.62,13.93-8.09,3.53.36,6.93,1.05,9.64,3.61-1.93,4.16-9.36,7.46-14.49,8-6.1.66-12,2.65-18.06,4.06C326.15,949.43,323.78,947.91,321.49,946.21Z"/><path class="cls-1" d="M180.93,807.55l-16.86-19.28-3.62-4.81a7.21,7.21,0,0,1-6-7.24c-6-9.43-11.92-19-18.22-28.22a56.94,56.94,0,0,1-3.45-6.78l3.45-.26c2.31,6.71,6.9,12,10.65,17.88a468.64,468.64,0,0,0,35.28,47.49C182.46,807.46,182.07,807.88,180.93,807.55Z"/><path class="cls-1" d="M265.32,82.49c4.16,1.56,5.78,3.79,2.13,7.59A5.18,5.18,0,0,0,266,92.61c-.22,1.33,3.07,3-.34,4-1.59.48-2.32-1-3.35-1.92-2.74-2.58.72-3.58,1.3-5.37-5.93,1.55-6.19,2.44-2.89,9.6-4.8-5.85-10.73-1.3-16.06-2.21A126,126,0,0,1,265.32,82.49Z"/><path class="cls-1" d="M284.54,697.92q-.07,23.66-.14,47.31c-1.13-1.37-1-3-1-4.61q0-54.48.12-109a1.64,1.64,0,0,1,1.91,1,9.1,9.1,0,0,1,.89,4.06c.19,18.55.14,37.1,0,55.66A8.06,8.06,0,0,1,284.54,697.92Z"/><path class="cls-1" d="M150.82,224.49a2.55,2.55,0,0,0,1.27,2.46l-21.78,34.87c.25-1.86-1.37-2.54-2.31-3.64,7.94-9.83,14.22-20.78,21.08-31.34C149.61,226,150.24,225.27,150.82,224.49Z"/><path class="cls-1" d="M283.53,502.77h1c3.19,4.31,1.43,9.3,1.87,14,.2,2.2-.11,4.41-.1,6.61.31,21.59.11,43.18.1,64.76a11.54,11.54,0,0,1-.95,5.27,1.64,1.64,0,0,1-1.92,1Z"/><path class="cls-1" d="M203.76,866.59c1.94-2.23-.63-8.47-4-9.23-1.12-.25-2.67.37-2.26-1.46.29-1.29,1.86-1.61,3-1.07,1.6.75,4,1.58,4.36,2.84,1.3,4.87,6.61,8.4,4.84,14.25Z"/><path class="cls-1" d="M687,23.17c-2.38,1.22-4.75,2.48-7.16,3.66-1.19.58-2.66,1.78-3.72.37a9.32,9.32,0,0,1-1.88-4.8c-.1-1.7,1.68-1.71,2.46-.75,2,2.35,3.78,1.33,5.74.26C684,22.19,685.7,21.83,687,23.17Z"/><path class="cls-1" d="M283.53,594.32h1c1.63,1.5,1.8,3.53,1.8,5.52,0,9.58.45,19.17-.25,28.75a4.75,4.75,0,0,1-1.55,3.07h-1Z"/><path class="cls-1" d="M258,114.82c2.9-4.15,5.58-8.5,9.23-11.75,3.13,2-4.41,3.09.66,4.67A42.43,42.43,0,0,1,258,114.82Z"/><path class="cls-1" d="M185.21,848.64c3.59,1.47,6.84,3.27,7.65,7.55A27.1,27.1,0,0,1,185.21,848.64Z"/><path class="cls-1" d="M867.59,871.34c2.86-1.4,1.51-7.79,7.08-6C872.65,867.76,871,870.53,867.59,871.34Z"/><path class="cls-1" d="M167.57,166.62c.63,2-.12,2.82-2.28,2.49Z"/><path class="cls-1" d="M179.25,842.61a4.81,4.81,0,0,1,4,4.07A7.94,7.94,0,0,1,179.25,842.61Z"/><path class="cls-1" d="M314.2,942.61c2.18,0,4.1.45,5.18,2.6C317.47,944.72,315.53,944.27,314.2,942.61Z"/><path class="cls-1" d="M661.35,765.29q.06-101.77.09-203.55c0-7.29-1.24-8.41-7.07-7.17a2.24,2.24,0,0,1-.43-3.61c6.25-7.31,12.26-14.86,19-21.71,3.26-3.32,4.46-8,8.41-10.71,2.58-1.74,4.9-4.15,8.17-1.36,3.6,3.79,2.85,8.74,2.86,13.15q.25,113.49.11,227a20.46,20.46,0,0,1-.6,3.51c-1.39-2.82-.78-5.72-.34-8.61V742.4c-3.27-23.54-1.19-47.22-1.59-70.83-.28-16.84-2-33.64-1.37-50.51.07-1.92.35-4.53-1.79-5.35-2.31-.9-3.24,1.74-4.57,3.08-4.66,4.68-8.53,10.15-14.16,13.84-3.59,2.35-3.41,6.1-3.41,9.73q0,37.93,0,75.86c0,11,0,22.08,0,33.12,0,2.79.23,5.67-1.81,8C662.42,761.36,663.79,763.79,661.35,765.29Z"/><path class="cls-1" d="M470,640.3c-13.33-7.53-26.85-14.71-39.67-23.12-1.58-.95-2.56-2.34-1.24-3.94,5.59-6.78,10.73-14,17.21-20a1.9,1.9,0,0,1,2.24-.21l28.63,16.24c4.16,2.35,8.21,5.09,13.38,4.4a278.09,278.09,0,0,1-19.22,22.21C470.05,637.15,470.05,638.73,470,640.3Z"/><path class="cls-1" d="M662.8,759.36c0-39.9.09-79.81-.12-119.71,0-4.67,1.58-7.18,5.39-9.54,5.8-3.59,9.7-9.29,14.13-14.36,1.51-1.73,2.59-4.83,5.36-3.86,2.34.82,2.85,3.65,2.93,6.15,0,.2,0,.4,0,.6.75,41.25,1.82,82.5,1,123.77-2.48-1.67.91-6.31-3-6.79-3.33-.4-4.65,3-6.68,5.14-4.68,4.86-9.21,9.76-12.35,15.82C668.1,759.26,665.5,759.57,662.8,759.36Z"/><path class="cls-1" d="M756.64,728.06l.09-138.56c2-1.75,1.18-4.11,1.19-6.21q.09-30.63,0-61.25c6.79-4.94,10.81-12.68,17.69-17.55,1.83-1.3,2.47-3.58,3.72-5.37,1.49-2.15,3-4.53,6.2-2.36v74.69c-3.42,8.69-11.21,14.43-15.32,22.67a8.53,8.53,0,0,1-3.86,3.72c-5.69,2.78-6.89,7.39-6.8,13.35.29,18,.13,36,.09,54,0,2.95.49,6.06-1.71,8.61,0,16,0,32,0,48.06C757.91,724,758.76,726.36,756.64,728.06Z"/><path class="cls-1" d="M758,673.83c0-22.18.11-44.36-.1-66.54,0-4.23.78-7,4.88-9,4.3-2.12,7-5.59,8.94-10.53,1.5-3.87,6.24-6.47,8.86-10.36,1.4-2.07,1-6,5-5.92v73.48c-3.81.71-6.56,2.52-7.53,6.58-.36,1.5-1,3.51-2.62,3.79-7.49,1.36-8.51,8.13-11,13.35C763,671.82,761.08,673.3,758,673.83Z"/><path class="cls-1" d="M691.53,752.22c.11,2.87.23,5.74.34,8.61,0,1.09,0,2.17,0,3.26C689.5,760.21,690.1,756.22,691.53,752.22Z"/><path class="cls-1" d="M284.54,629.26q0-17.47,0-34.94,0-35.54,0-71.07c6.29-7.88,12.23-16.05,19.61-23,2.6-2.46,4.91-5.33,9.1-3.45l0,102.45c-4.05,8.68-11.66,14.61-17.25,22.1-1.63,2.17-4,3.84-5.92,5.93C288.67,628.81,287.21,630.94,284.54,629.26Z"/><path class="cls-1" d="M407.41,310c0,16,0,32,0,47.94,0,2.11-.74,4.43,1.05,6.28,2.35,2.19,2,5.13,2,7.88q.11,28.25,0,56.51c0,2.75.32,5.68-2,7.89-1.82-1.85-1.06-4.18-1.07-6.3-.06-13.58,0-27.17-.81-41.21-10.16,10.82-22.58,19.58-28,34.22q0-41.57,0-83.11c3.8-7.85,10.84-13.12,15.87-20,1.87-2.55,4.17-4.75,6-7.36C402.09,310.54,404.05,308.24,407.41,310Z"/><path class="cls-1" d="M284.54,408.81c0-22.07,0-44.14,0-66.21,0-3.14,1.72-5,3.25-7.52,5.67-9.41,14.54-15.68,21.31-23.91,1.29-1.56.95-4.36,4.21-5.19v75.16c-7.1,7.79-15.06,14.78-21.7,23C289.85,406.3,288.24,409.35,284.54,408.81Z"/><path class="cls-1" d="M284.54,629.26c6-3.18,10.5-8.26,14.38-13.55,4.35-5.92,9.77-10.79,14.31-16.46q0,37.31,0,74.6c-4.94-.78-6.83,3.26-9.39,6.07a137.52,137.52,0,0,1-19.29,18q0-33.13,0-66.26C284.54,630.86,284.54,630.06,284.54,629.26Z"/><path class="cls-1" d="M313.25,496.8c-7.23.61-9.89,7.19-14.36,11.29a41.38,41.38,0,0,0-9.59,12,5.32,5.32,0,0,1-4.76,3.15q0-10.25,0-20.49,0-23.47,0-47c7.51-8.2,14.5-16.85,21.76-25.27,1.84-2.13,3.32-5.14,7-4.77Z"/><path class="cls-1" d="M407.41,310c-6.58.5-7.52,7.09-11.21,10.66-6.27,6.06-11.15,13.46-17.57,19.44V290.76a3,3,0,0,0,2.67-2.08c3.73-9.75,12.15-15.43,19.26-22.24a9.06,9.06,0,0,0,1.63-1.71c1.08-1.87.75-5.76,4-4.62,2.46.87,1.14,4.31,1.16,6.58C407.46,281.13,407.41,295.58,407.41,310Z"/><path class="cls-1" d="M313.27,425.75c-8.45,7-14.16,16.36-21.59,24.24-2.13,2.27-3.59,5.3-7.14,5.8v-47c7.83-8.09,15.74-16.11,23.43-24.33,1.57-1.68,3-3.12,5.3-3.34Z"/><path class="cls-1" d="M655.56,36.58c2.41,2.9,6.09,2.61,9.24,3.48,9.45,2.61,19,4.89,28.1,8.56-.42,2.83-2.18,1.7-3.7,1.25-9.56-2.63-19.17-5.07-28.66-7.93-15.48-4.68-31.31-7.65-47.23-10.13-12.37-1.92-24.83-3.25-37.25-4.84-2.77-2.69-6.57-.21-10.19-2,13.56-1.69,26.27.58,39,2.24C616,28.68,627.26,30,638.2,33,643.91,34.49,649.47,36.84,655.56,36.58Z"/><path class="cls-1" d="M491.73,28.14c4.62-1.73,9.45-2.12,14.31-2.44,2.09-.14,4.41.78,6.17-1.17,4-2.26,8.56-1.89,12.72-2.16,10.79-.7,21.66-.25,32.5-.23,1.17,0,2.45-.08,3.47,2.38h-7.55c-10.44,0-20.88-.05-31.32,0-2.1,0-4.47-.83-6.21,1.22A143.21,143.21,0,0,1,491.73,28.14Z"/><path class="cls-1" d="M377.07,32.82c-.57.49-.92,1-1.32,1.06s-1.28-.21-1.4-.54c-.34-.89.31-1.4,1.14-1.37C375.93,32,376.37,32.42,377.07,32.82Z"/><path class="cls-1" d="M664.87,29c-.3-.23-.87-.46-1.11-.88-.42-.75.26-1,.8-1a1.93,1.93,0,0,1,1.31.74C666.19,28.49,665.71,28.87,664.87,29Z"/><path class="cls-1" d="M612,396c-7.3-4.1-14.66-8.09-21.88-12.34-5.13-3-10-3.18-15.21-.18-14.17,8.12-28.42,16.08-42.64,24.1-2.85-1.11-.44-2,.19-2.76C542,394,552,383.62,561,372.36c4.18-5.26,8.15-10.82,12.55-15.85,7.21-8.24,14.3-16.71,23-23.58,2.69,2.81,1.39,6.33,1.7,9.57.24,2.52-.42,5.13.73,7.55,2.81,4.51,7.69,6.27,12,8.76,5.17,3,10.27,6.18,15.46,9.19,1.87,1.09,6,3.27,7.88,4.37,0,2.49-5,4.16-6.6,5.58A94.37,94.37,0,0,0,612,396Z"/><path class="cls-1" d="M567.75,331.67c-4.25-19.17,5.43-32.89,17.45-46,7.19-7.85,15.53-14.65,20.66-24.51,1.56-3,4-8.52,9.89-7.75,5.34,1.49,10.5,3.28,13.65,8.36A124.86,124.86,0,0,0,617,274.54c-2.75,3.22-5.41,6.38-6.9,10.38-2.25,1.33-4.13-.08-6.08-.86s-4.14-1.78-5.37,1.19c-1.56,4.53,1.25,9.72-2.16,13.94-2,0-4.17-.42-5.13,2.05-3,7.76-10,12.36-15.15,18.39C572.94,323.47,571.72,328.52,567.75,331.67Z"/><path class="cls-1" d="M596.47,299.19c.75-5.2-1.25-10.59,1.15-15.67,2,1.8,2,4.27,2,6.64q.15,28.07,0,56.13c0,2-.11,4-1.39,5.7-3.43-2.87-1.19-6.7-1.63-10.06a75,75,0,0,1-.13-9Z"/><path class="cls-1" d="M724.23,60.66c4.63.57,8.4,3.29,12.54,5.08,4.35,1.88,8.16,4.89,12.88,6.1.59.16,5.36,1,1,3.36L721.72,62C721.59,59.76,722.73,59.88,724.23,60.66Z"/><path class="cls-1" d="M689.2,49.87c1.33-.12,2.81.2,3.7-1.25,5.94,1.13,11.4,3.6,16.88,6-.43,2.82-2.16,1.72-3.69,1.24C700.36,54.14,694.57,52.6,689.2,49.87Z"/><path class="cls-1" d="M706.09,55.88c1.34-.1,2.8.2,3.69-1.24,4.76,2.13,10,3,14.45,6A2.54,2.54,0,0,0,721.72,62C716,61.18,711.23,58.1,706.09,55.88Z"/><path class="cls-1" d="M378.36,675c-1.59-18-.44-36.09-.7-54.13-.18-11.84.25-23.69-.11-35.52-.32-10.12,3.75-17.18,12.49-22.11,19.37-10.93,38.62-22.07,57.9-33.16q49.24-28.29,98.48-56.61a45.45,45.45,0,0,1,4.33-1.95c1.06,2.88-.45,5-2.16,7-3.87,4.46-7.05,9.39-12.23,12.87-4.85,3.27-7.92,8.82-11.71,13.31-7,8.35-14.88,16-21.15,25-.74,1.06-1.23,2-.63,3.26-17.65,11.46-36.36,21.09-54.47,31.74-5.87,3.45-11.82,6.77-17.64,10.3-4.6,2.79-4.69,4.44-.25,7.26,5.9,3.74,12,7.19,18,10.76-7.18,6.06-11.95,14.25-18.5,20.87-1.14,1.15,0,2.2.29,3.27-5.11-1.4-8.9-5.22-13.61-7.39-5.74-2.64-7.8-1.62-7.87,4.67-.2,17.77-.22,35.54-.32,53.31-2.33-6.6-.47-13.43-1.1-20.13-.15-1.67.84-3.9-1.4-4.77-1.79-.69-3,.89-4,2.06-5.92,6.89-11.85,13.78-17.56,20.84A108.18,108.18,0,0,0,378.36,675Z"/><path class="cls-1" d="M334,740.12a6.75,6.75,0,0,0,.39,5.8l-1.69.18C333,744.08,331.81,741.73,334,740.12Z"/><path class="cls-1" d="M397.77,43.8,394.16,45c-1.25-2-3.83-1.83-6.44-4.18C392.41,39.69,395.39,40.45,397.77,43.8Z"/><path class="cls-1" d="M405,41.39a6.4,6.4,0,0,1-4.81,2.37C401.11,41.6,403,41.27,405,41.39Z"/><path class="cls-1" d="M597.77,731.65l3.69,4.77C598.26,736.36,597.61,734.32,597.77,731.65Z"/><path class="cls-1" d="M758,426.88q0-57.17,0-114.33c0-5.44-.66-10.16,5.28-14.8,4.86-3.8,8.54-10.31,12.86-15.53,2.61-3.15,5.58-6,9.45-10.14V398c-3.37,5.4-6.85,10.74-11.81,14.85-2.22,1.84-3.52,4.31-5.27,6.48C765.74,422.79,763.59,427.36,758,426.88Z"/><path class="cls-1" d="M758,426.88a20,20,0,0,0,9.07-7.6c5.41-7.79,12-14.5,18.55-21.25q0,49.37,0,98.73c-1.39,0-3.35-.22-3.76,1.15-2.14,7.29-9.9,9.78-13.31,16-2.2,4-6.32,6.31-10.54,8.09Z"/><path class="cls-1" d="M180.93,807.55l1.22-1.22c7.47,7.69,15.35,15,22.32,23.14,8.23,9.6,18.38,17,27.44,25.65,12.62,12,27.54,21.24,41.23,32,2.11,1.65,2.13,1.62.56,3.57-18.19-13-35.94-26.53-53-40.95a4.22,4.22,0,0,1-2.42-2.41l-1.21-1.21c-4.47-4.74-9-9.35-13.85-13.79A163.75,163.75,0,0,1,180.93,807.55Z"/><path class="cls-1" d="M309.83,912.35,288.16,900.3c-3.84-2.08-6.57-5.83-10.85-7.23.32-2.57,1.38-2.08,3.21-1.12C291,897.5,300,905.6,311.09,910c.73.29,2.19.8,1,2C311.7,912.47,310.61,912.27,309.83,912.35Z"/><path class="cls-1" d="M654.42,276.25c4.17,2.31,8.55,4.3,12.47,7,7,4.79,13.28,4.19,20.38-.21,13-8,26.5-15.4,39.78-23.06,1.73-1,3.37-2.16,5.49-2.12-5.18,6.1-9.46,12.81-15.49,18.38-5.26,4.86-9.4,11.11-14.25,16.59-8.65,9.76-16.72,20-25.54,29.65-4.41,4.8-7.31,10.93-13,14.59-1.68,1.06-1.44,3.15-1.44,5,0,5,0,10,0,15,2.83,9.3,3.37,18.58-.3,27.81-3.73-1.62-2.55-5.06-2.58-7.78-.15-16.86-.29-33.72,0-50.58.13-7-2.19-11.59-8.33-15.24-5.65-3.34-12.1-5.53-16.74-10.5a4.83,4.83,0,0,1,.49-5.62c4.71-6.47,9.63-12.78,15.76-18A3.12,3.12,0,0,1,654.42,276.25Z"/><path class="cls-1" d="M661.46,384.67c2.68-3.58,1-7.67,1.26-11.51.3-5.37.08-10.77.08-16.15a15.37,15.37,0,0,0,6.65-4.9c4.68-6.09,11.54-10.23,15.26-17.17a2.89,2.89,0,0,1,3.41-1.77,3.09,3.09,0,0,1,2.33,3.09c.11,1.36-.16,2.83,1.07,3.89,1.76,7.46.37,15,.73,22.55.2,4.18,0,8.39,0,12.56-.08.74.29,1.75-.6,2.14-1.3.57-1.71-.59-2.09-1.45-1.11-2.49-.11-5.6-2.08-7.8a1.82,1.82,0,0,0-1.62.91c-8.83,13.2-20.35,24.09-30.91,35.79-3.87,4.3-8.32,8.13-10.62,13.67-.6,1.45-1.71,2.24-3.32,1.1,2.82-3.75,1.18-6-2.36-8.07C629.76,406.46,620.92,401.2,612,396c.69-5.52,4.53-9.11,8.06-12.79a93.49,93.49,0,0,0,10.41-13c4.58,2.59,4.8,2.76,7,4,4.82,2.73,9.65,5.45,14.44,8.25C654.88,384.23,658,385.26,661.46,384.67Z"/><path class="cls-1" d="M691.55,377.41l0-37.26c1.63-7.6-2.25-15.25.18-22.83a16.65,16.65,0,0,1,1.31-2.51c-1.14,22,0,44.08-.5,66.11-.23,11,.9,22-.65,33-.38-.71-.23.34-.4-.42A77.51,77.51,0,0,1,691.55,377.41Z"/><path class="cls-1" d="M735,255.77c2.33-2.09,1.87-4.55,1-7.08,1.26.27,1.49,1.28,1.69,2.32C737.19,252.85,738.32,255.56,735,255.77Z"/><path class="cls-1" d="M219,859.86c.16,1.8-1.21,2-2.32,1.75a8.11,8.11,0,0,1-6-7c-.14-.87-.12-3.86,2.4-3.07C216.9,852.78,217.58,856.65,219,859.86Z"/><path class="cls-1" d="M218.27,847.3a4.06,4.06,0,0,1,2.42,2.41c-1.41.11-2.22,2.91-3.9,1.19C214.91,849,217.91,848.58,218.27,847.3Z"/><path class="cls-1" d="M213.15,870.53c2.11-.43,3.22.19,3.54,2.34C215,872.74,214.11,871.79,213.15,870.53Z"/><path class="cls-1" d="M154.44,776.22q3,3.62,6,7.24c-2.93.87-6.11,4.73-8.66,2.07C148.62,782.21,153.5,779.39,154.44,776.22Z"/><path class="cls-1" d="M215.86,149.81a7.56,7.56,0,0,1-3.6,3.61C212,150.75,213.19,149.54,215.86,149.81Z"/><path class="cls-1" d="M691.55,377.41q.15,18.24.31,36.48c.79,7.81-3.12,12.91-9.55,16.57l-89,50.78c-4.07,1.09-4-1.46-3.35-4.06.73-2.83,3-4.58,5.07-6.56,5-4.9,9.7-10,13.42-16.07,4.59-7.53,10.94-13.91,17.39-19.83A42.66,42.66,0,0,0,635,423.08c2.28-1.76,3.57-2.16,6-3.46,3.94-1.13,3.67-5.47,5.73-8.08,7-8.91,15.79-16.18,22.84-25.15,5.22-6.63,11.5-12.55,16.1-19.82.54-.86,1.11-1.9,2.19-1.77,1.62.19,1,1.91,1.57,2.83C691.36,370.67,689.33,374.49,691.55,377.41Z"/><path class="cls-1" d="M635,423.08a9.19,9.19,0,0,1-4,9.42c-7.74,5.23-12.84,12.91-18.92,19.59-4.18,4.58-7.06,10.35-11.26,15.16-2.42,2.77-5.94,4.21-7.74,7.29-1.18,2-5.45,4.76.29,6.7q-31.32,18-62.66,36c-9.23,5.3-18.53,10.47-27.79,15.69-1.67-.47-5.39,1-1.74-3.27,7.09-8.26,13.91-16.91,21.35-24.71,5.75-6,9.86-13.56,17.38-18.41,4.82-3.11,8.81-8.93,10.89-15.1Q592.43,446.52,635,423.08Z"/><path class="cls-1" d="M634.94,299.57c-8.32-5-17.41-8.74-25.2-14.67-.5-4,1.55-6.58,4.36-9.14,5-4.56,7.56-11.72,14.84-13.87,8.87,4.12,17.1,9.37,25.48,14.36C646.57,282.89,639.45,290.14,634.94,299.57Z"/></g></g></svg>